<svg width="85" height="85" viewBox="0 0 85 85" fill="none" xmlns="http://www.w3.org/2000/svg">
<path d="M63.75 77.0312H21.25C17.7276 77.0312 14.3495 75.632 11.8587 73.1413C9.36802 70.6505 7.96875 67.2724 7.96875 63.75V26.5625C7.96875 25.858 8.2486 25.1824 8.74675 24.6842C9.24489 24.1861 9.92052 23.9062 10.625 23.9062H63.75C67.2724 23.9063 70.6505 25.3055 73.1413 27.7962C75.632 30.287 77.0312 33.6651 77.0312 37.1875V63.75C77.0312 67.2724 75.632 70.6505 73.1413 73.1413C70.6505 75.632 67.2724 77.0312 63.75 77.0312ZM13.2812 29.2188V63.75C13.2812 65.8634 14.1208 67.8903 15.6152 69.3848C17.1097 70.8792 19.1366 71.7188 21.25 71.7188H63.75C65.8634 71.7188 67.8903 70.8792 69.3848 69.3848C70.8792 67.8903 71.7188 65.8634 71.7188 63.75V37.1875C71.7188 35.0741 70.8792 33.0472 69.3848 31.5527C67.8903 30.0583 65.8634 29.2188 63.75 29.2188H13.2812Z" fill="white"/>
<path d="M69.0625 29.2187C68.358 29.2187 67.6824 28.9389 67.1842 28.4407C66.6861 27.9426 66.4062 27.267 66.4062 26.5625V19.2578C66.4571 18.3273 66.2972 17.3973 65.9385 16.5372C65.5797 15.6771 65.0314 14.9092 64.3344 14.2906C63.708 13.8214 62.9831 13.501 62.2145 13.3537C61.4459 13.2064 60.6538 13.2362 59.8984 13.4406L15.3531 23.5609C14.7539 23.6959 14.22 24.0343 13.8422 24.5186C13.4645 25.0029 13.2662 25.6031 13.2812 26.2172C13.2812 26.9216 13.0014 27.5973 12.5032 28.0954C12.0051 28.5936 11.3295 28.8734 10.625 28.8734C9.92051 28.8734 9.24488 28.5936 8.74674 28.0954C8.24859 27.5973 7.96874 26.9216 7.96874 26.2172C7.95315 24.4013 8.55822 22.6346 9.68375 21.2096C10.8093 19.7846 12.3877 18.7867 14.1578 18.3812L58.7297 8.26092C60.2626 7.87331 61.8639 7.84174 63.4109 8.16864C64.958 8.49554 66.4096 9.17222 67.6547 10.1469C68.9712 11.2642 70.0199 12.663 70.7233 14.2399C71.4267 15.8169 71.7669 17.5317 71.7187 19.2578V26.5625C71.7187 27.267 71.4389 27.9426 70.9408 28.4407C70.4426 28.9389 69.767 29.2187 69.0625 29.2187Z" fill="white"/>
<path d="M74.375 61.0938H55.7812C52.9633 61.0938 50.2608 59.9743 48.2682 57.9818C46.2757 55.9892 45.1562 53.2867 45.1562 50.4688C45.1562 47.6508 46.2757 44.9483 48.2682 42.9557C50.2608 40.9632 52.9633 39.8438 55.7812 39.8438H74.375C75.0795 39.8438 75.7551 40.1236 76.2533 40.6217C76.7514 41.1199 77.0312 41.7955 77.0312 42.5V58.4375C77.0312 59.142 76.7514 59.8176 76.2533 60.3158C75.7551 60.8139 75.0795 61.0938 74.375 61.0938ZM55.7812 45.1562C54.3723 45.1562 53.021 45.716 52.0247 46.7122C51.0285 47.7085 50.4688 49.0598 50.4688 50.4688C50.4688 51.8777 51.0285 53.229 52.0247 54.2253C53.021 55.2215 54.3723 55.7812 55.7812 55.7812H71.7188V45.1562H55.7812Z" fill="white"/>
</svg>
