<svg width="85" height="85" viewBox="0 0 85 85" fill="none" xmlns="http://www.w3.org/2000/svg">
<path d="M56.3782 28.9773C56.3782 27.909 55.5128 27.0455 54.4464 27.0455H19.6737C18.6054 27.0455 17.7418 27.909 17.7418 28.9773C17.7418 30.0456 18.6054 30.9091 19.6737 30.9091H54.4464C55.5128 30.9091 56.3782 30.0456 56.3782 28.9773ZM75.6964 75.3409H66.0373V56.0227C66.0373 54.9544 65.1718 54.0909 64.1055 54.0909C63.0372 54.0909 62.1737 54.9544 62.1737 56.0227V75.3409H17.7418C16.6735 75.3409 15.81 76.2044 15.81 77.2727C15.81 79.4055 14.0791 81.1364 11.9464 81.1364C9.81366 81.1364 8.08275 79.4055 8.08275 77.2727V3.86364H62.1737V21.25C62.1737 22.3183 63.0372 23.1818 64.1055 23.1818C65.1718 23.1818 66.0373 22.3183 66.0373 21.25V1.93182C66.0373 0.863523 65.1718 0 64.1055 0H6.15093C5.08264 0 4.21912 0.863523 4.21912 1.93182V77.2727C4.21912 81.5401 7.679 85 11.9464 85H69.9009C74.1683 85 77.6282 81.5401 77.6282 77.2727C77.6282 76.2044 76.7628 75.3409 75.6964 75.3409ZM69.9009 81.1364H18.5841C18.9338 80.5336 19.2216 79.8942 19.4013 79.2045H73.2295C72.5591 80.3559 71.3286 81.1364 69.9009 81.1364ZM44.7873 15.4545C45.8537 15.4545 46.7191 14.591 46.7191 13.5227C46.7191 12.4544 45.8537 11.5909 44.7873 11.5909H25.4691C24.4008 11.5909 23.5373 12.4544 23.5373 13.5227C23.5373 14.591 24.4008 15.4545 25.4691 15.4545H44.7873ZM19.6737 36.7045C18.6054 36.7045 17.7418 37.5681 17.7418 38.6364C17.7418 39.7047 18.6054 40.5682 19.6737 40.5682H42.8555C43.9218 40.5682 44.7873 39.7047 44.7873 38.6364C44.7873 37.5681 43.9218 36.7045 42.8555 36.7045H19.6737Z" fill="white"/>
<path d="M79.8189 10.5226C78.8935 9.98939 77.7132 10.3062 77.18 11.2296L48.2027 56.2796C47.6715 57.205 47.9864 58.3853 48.9098 58.9185C49.8351 59.4517 51.0155 59.1348 51.5487 58.2114L57.8676 48.3881C59.33 49.5299 61.1421 50.2272 63.1396 50.2272C67.4456 50.2272 70.9963 47.088 71.6879 42.9752L80.5395 13.1247C81.0437 12.2052 80.7326 11.05 79.8189 10.5226ZM68.9717 38.7213C68.0522 44.283 64.7314 47.5748 60.4234 45.22C60.2882 45.1466 60.1897 45.0538 60.0622 44.9746L73.5559 23.997L68.9717 38.7213Z" fill="white"/>
</svg>
