<svg width="85" height="85" viewBox="0 0 85 85" fill="none" xmlns="http://www.w3.org/2000/svg">
<path d="M61.8181 46.3636H23.1818V50.2273H61.8181V46.3636Z" fill="white"/>
<path d="M61.8181 57.9546H23.1818V61.8182H61.8181V57.9546Z" fill="white"/>
<path d="M46.3636 11.5909H23.1818V15.4546H46.3636V11.5909Z" fill="white"/>
<path d="M61.8181 69.5454H23.1818V73.409H61.8181V69.5454Z" fill="white"/>
<path d="M61.8181 34.7727H23.1818V38.6363H61.8181V34.7727Z" fill="white"/>
<path d="M71.5352 85C71.5352 85 73.4091 85 73.4091 83.1107V17L56.5482 0H13.4647C13.4647 0 11.5909 0 11.5909 1.88932V83.1068C11.5909 85 13.4647 85 13.4647 85H71.5352ZM15.4545 3.86364H54.0909V15.4545C54.0909 19.3182 57.9545 19.3182 57.9545 19.3182H69.5454V81.1364H15.4545V3.86364Z" fill="white"/>
<path d="M61.8181 23.1818H23.1818V27.0454H61.8181V23.1818Z" fill="white"/>
</svg>
