<svg width="85" height="85" viewBox="0 0 85 85" fill="none" xmlns="http://www.w3.org/2000/svg">
<g clip-path="url(#clip0_7_179)">
<path d="M81.2731 7.08337H5.31248C3.35647 7.08337 1.77081 8.66903 1.77081 10.625V63.75C1.77081 65.7061 3.35647 67.2917 5.31248 67.2917H79.6875C81.6435 67.2917 83.2292 65.7061 83.2292 63.75V10.625C83.2292 7.08337 83.2292 7.08337 81.2731 7.08337Z" stroke="white" stroke-width="4" stroke-linecap="round" stroke-linejoin="round"/>
<path d="M24.7917 77.9166H60.2084" stroke="white" stroke-width="4" stroke-linecap="round" stroke-linejoin="round"/>
<path d="M37.1875 67.2916V77.9166" stroke="white" stroke-width="4" stroke-linecap="round" stroke-linejoin="round"/>
<path d="M47.8125 67.2916V77.9166" stroke="white" stroke-width="4" stroke-linecap="round" stroke-linejoin="round"/>
<path d="M45.6663 40.1307L65.2658 31.7334C65.5853 31.5973 65.8577 31.3703 66.0491 31.0806C66.2406 30.791 66.3427 30.4514 66.3427 30.1042C66.3427 29.757 66.2406 29.4174 66.0491 29.1278C65.8577 28.8381 65.5853 28.6111 65.2658 28.475L45.6663 20.0777C45.2253 19.8887 44.7506 19.7913 44.2709 19.7913C43.7911 19.7913 43.3164 19.8887 42.8754 20.0777L19.4792 30.1042L42.8754 40.1307C43.3164 40.3197 43.7911 40.4171 44.2709 40.4171C44.7506 40.4171 45.2253 40.3197 45.6663 40.1307V40.1307Z" stroke="white" stroke-width="4" stroke-linecap="round" stroke-linejoin="round"/>
<path d="M30.1042 34.6587V46.7181C30.1042 47.0467 30.1956 47.3688 30.3683 47.6484C30.5409 47.9279 30.7879 48.154 31.0817 48.3012L42.6877 54.1024C43.1793 54.3481 43.7213 54.476 44.2709 54.476C44.8204 54.476 45.3624 54.3481 45.854 54.1024L57.46 48.3012C57.7538 48.154 58.0008 47.9279 58.1734 47.6484C58.3461 47.3688 58.4375 47.0467 58.4375 46.7181V34.6587" stroke="white" stroke-width="4" stroke-linecap="round" stroke-linejoin="round"/>
<path d="M19.4792 30.1041V42.5" stroke="white" stroke-width="4" stroke-linecap="round" stroke-linejoin="round"/>
<path d="M19.4791 42.5L14.6164 55.4696C14.5652 55.6035 14.5473 55.748 14.5645 55.8904C14.5817 56.0328 14.6333 56.1688 14.715 56.2868C14.7966 56.4047 14.9058 56.5009 15.033 56.5671C15.1603 56.6333 15.3017 56.6675 15.4452 56.6667H23.5131C23.6565 56.6675 23.798 56.6333 23.9252 56.5671C24.0525 56.5009 24.1617 56.4047 24.2433 56.2868C24.3249 56.1688 24.3766 56.0328 24.3938 55.8904C24.4109 55.748 24.3931 55.6035 24.3418 55.4696L19.4791 42.5Z" stroke="white" stroke-width="4" stroke-linecap="round" stroke-linejoin="round"/>
</g>
<defs>
<clipPath id="clip0_7_179">
<rect width="85" height="85" fill="white"/>
</clipPath>
</defs>
</svg>
