<svg width="85" height="85" viewBox="0 0 85 85" fill="none" xmlns="http://www.w3.org/2000/svg">
<g clip-path="url(#clip0_7_129)">
<path d="M70.3906 7.45344C70.3906 5.52633 69.5552 3.6975 68.0996 2.43578C66.644 1.17539 64.7155 0.609608 62.811 0.879218L13.0927 7.98203C13.0302 7.99133 12.9784 8.02453 12.9187 8.0418C12.8416 8.06437 12.7673 8.08297 12.6969 8.11883C12.6145 8.16 12.5468 8.2118 12.4751 8.26758C12.414 8.31539 12.3542 8.35789 12.3024 8.415C12.2427 8.48273 12.1988 8.55844 12.1537 8.6368C12.1152 8.7032 12.0727 8.7643 12.0461 8.83601C12.0129 8.925 12.0036 9.0193 11.9903 9.11492C11.981 9.17734 11.9531 9.23312 11.9531 9.29687V83.6719C11.9531 84.4063 12.5468 85 13.2812 85H66.4062C70.0679 85 73.0469 82.021 73.0469 78.3594V14.6094C73.0469 12.4459 71.991 10.5387 70.3853 9.32609C70.3853 9.31547 70.3906 9.3075 70.3906 9.29687V7.45344ZM70.3906 78.3594C70.3906 80.5561 68.603 82.3438 66.4062 82.3438H14.6094V10.625H66.4062C68.603 10.625 70.3906 12.4127 70.3906 14.6094V78.3594ZM31.9693 7.96875L63.1869 3.51023C64.3344 3.34289 65.4872 3.68687 66.3598 4.44391C67.2337 5.19961 67.7344 6.29797 67.7344 7.45344V7.96875H66.4062H31.9693Z" fill="white"/>
<path d="M57.1094 53.125H27.8906C25.6939 53.125 23.9062 54.9127 23.9062 57.1094V70.3906C23.9062 72.5873 25.6939 74.375 27.8906 74.375H57.1094C59.3061 74.375 61.0938 72.5873 61.0938 70.3906V57.1094C61.0938 54.9127 59.3061 53.125 57.1094 53.125ZM27.8906 55.7812H57.1094C57.8425 55.7812 58.4375 56.3763 58.4375 57.1094V62.4219H47.6239C47.0302 60.1362 44.969 58.4375 42.5 58.4375C40.031 58.4375 37.9698 60.1362 37.3761 62.4219H26.5625V57.1094C26.5625 56.3763 27.1575 55.7812 27.8906 55.7812ZM45.1562 63.75C45.1562 65.2149 43.9649 66.4062 42.5 66.4062C41.0351 66.4062 39.8438 65.2149 39.8438 63.75C39.8438 62.2851 41.0351 61.0938 42.5 61.0938C43.9649 61.0938 45.1562 62.2851 45.1562 63.75ZM57.1094 71.7188H27.8906C27.1575 71.7188 26.5625 71.1238 26.5625 70.3906V65.0781H37.3761C37.9698 67.3638 40.031 69.0625 42.5 69.0625C44.969 69.0625 47.0302 67.3638 47.6239 65.0781H58.4375V70.3906C58.4375 71.1238 57.8425 71.7188 57.1094 71.7188Z" fill="white"/>
<path d="M42.5 50.4688C52.02 50.4688 59.7656 42.7231 59.7656 33.2031C59.7656 23.6831 52.02 15.9375 42.5 15.9375C32.98 15.9375 25.2344 23.6831 25.2344 33.2031C25.2344 42.7231 32.98 50.4688 42.5 50.4688ZM31.9095 43.2371C33.3718 42.6501 34.8726 42.1879 36.3986 41.8545C37.3695 44.1615 38.5448 46.0966 39.5343 47.5084C36.5606 46.8921 33.9243 45.3621 31.9095 43.2371ZM46.0939 25.4628C43.7086 25.7643 41.2927 25.7643 38.9061 25.4628C40.0616 22.7654 41.5424 20.6019 42.5 19.3534C43.4576 20.6019 44.9384 22.7654 46.0939 25.4628ZM42.5 28.3528C44.0101 28.3528 45.5202 28.2306 47.017 28.0128C47.3795 29.2373 47.6452 30.5323 47.7527 31.875H37.2459C37.3548 30.5323 37.6191 29.2373 37.9817 28.0128C39.4798 28.2306 40.9899 28.3528 42.5 28.3528ZM39.1027 41.3937C41.3578 41.1241 43.6409 41.1241 45.896 41.3937C44.7737 43.8813 43.4045 45.8734 42.5 47.0528C41.5955 45.8734 40.2262 43.8813 39.1027 41.3937ZM38.1225 38.8516C37.6869 37.4943 37.3695 36.0427 37.2473 34.5312H47.7541C47.6319 36.0427 47.3131 37.4943 46.8788 38.8516C43.9742 38.4412 41.0258 38.4412 38.1225 38.8516ZM50.4103 34.5312H57.043C56.8265 36.9205 56.0283 39.1398 54.7984 41.059C53.0852 40.3205 51.3161 39.7441 49.5165 39.3298C49.9694 37.8277 50.2934 36.218 50.4103 34.5312ZM50.4103 31.875C50.3054 30.3543 50.0291 28.9 49.6427 27.5254C51.4795 27.0951 53.2804 26.4881 55.0255 25.7205C56.1252 27.5533 56.8411 29.6384 57.043 31.875H50.4103ZM34.5897 31.875H27.957C28.1602 29.6384 28.8761 27.5533 29.9745 25.7205C31.7196 26.4895 33.5205 27.0951 35.3573 27.5254C34.9709 28.9 34.6946 30.3543 34.5897 31.875ZM34.5897 34.5312C34.7066 36.218 35.0293 37.8277 35.4848 39.3298C33.6852 39.7441 31.9162 40.3205 30.2029 41.059C28.9717 39.1398 28.1748 36.9205 27.9584 34.5312H34.5897ZM45.4657 47.5084C46.4552 46.0966 47.6305 44.1602 48.6014 41.8545C50.1274 42.1879 51.6282 42.6501 53.0905 43.2371C51.0757 45.3621 48.4394 46.8921 45.4657 47.5084ZM53.4119 23.5224C51.9084 24.148 50.3598 24.6394 48.786 24.994C47.7859 22.4918 46.5189 20.4013 45.4657 18.8992C48.6014 19.5473 51.3599 21.2128 53.4119 23.5224ZM39.5343 18.8979C38.4824 20.4 37.2154 22.4905 36.214 24.9927C34.6402 24.638 33.0929 24.1466 31.5881 23.5211C33.6401 21.2128 36.3986 19.5473 39.5343 18.8979Z" fill="white"/>
<path d="M46.4844 77.0312H38.5156V79.6875H46.4844V77.0312Z" fill="white"/>
</g>
<defs>
<clipPath id="clip0_7_129">
<rect width="85" height="85" fill="white"/>
</clipPath>
</defs>
</svg>
