<svg width="20" height="25" viewBox="0 0 20 25" fill="none" xmlns="http://www.w3.org/2000/svg">
<path d="M10 0.996338C4.47952 0.996338 0 5.47586 0 10.9963C0 21.3974 9.59898 24.7933 9.69283 24.8359C9.79522 24.8701 9.88908 24.8871 10 24.8871C10.1024 24.8871 10.2048 24.8701 10.2986 24.8359C10.401 24.8018 20 21.4059 20 10.9963C20 5.47586 15.5119 0.996338 10 0.996338ZM10 16.2438C7.07338 16.2438 4.70137 13.8632 4.70137 10.9537C4.70137 8.02706 7.08191 5.65504 10 5.65504C12.9181 5.65504 15.2901 8.03559 15.2901 10.9537C15.2901 13.8632 12.9181 16.2438 10 16.2438Z" fill="#1F5A5E"/>
</svg>
