<svg width="20" height="24" viewBox="0 0 20 24" fill="none" xmlns="http://www.w3.org/2000/svg">
<path d="M10 0C4.47952 0 0 4.47952 0 10C0 20.401 9.59898 23.7969 9.69283 23.8396C9.79522 23.8737 9.88908 23.8908 10 23.8908C10.1024 23.8908 10.2048 23.8737 10.2986 23.8396C10.401 23.8055 20 20.4096 20 10C20 4.47952 15.5119 0 10 0ZM10 15.2474C7.07338 15.2474 4.70137 12.8669 4.70137 9.95734C4.70137 7.03072 7.08191 4.6587 10 4.6587C12.9181 4.6587 15.2901 7.03925 15.2901 9.95734C15.2901 12.8669 12.9181 15.2474 10 15.2474Z" fill="white"/>
</svg>
